<?xml version="1.0" standalone="no"?>
<!DOCTYPE svg PUBLIC "-//W3C//DTD SVG 20010904//EN"
 "http://www.w3.org/TR/2001/REC-SVG-20010904/DTD/svg10.dtd">
<svg version="1.0" xmlns="http://www.w3.org/2000/svg"
 width="700.000000pt" height="700.000000pt" viewBox="0 0 700.000000 700.000000"
 preserveAspectRatio="xMidYMid meet">
<metadata>
Created by potrace 1.14, written by Peter Selinger 2001-2017
</metadata>
<g transform="translate(0.000000,700.000000) scale(0.100000,-0.100000)"
fill="#000000" stroke="none">
<path d="M2603 5455 c-65 -28 -66 -34 -66 -487 0 -225 -3 -408 -6 -409 -106
-13 -248 -72 -501 -206 -212 -113 -335 -142 -585 -138 -250 4 -351 35 -660
203 -205 111 -374 158 -608 167 -116 5 -172 -31 -172 -110 0 -90 44 -123 173
-126 178 -4 321 -45 512 -147 215 -115 278 -144 395 -178 187 -56 465 -64 700
-19 110 21 236 75 475 202 99 53 206 97 261 108 14 3 16 -41 16 -466 l0 -469
-41 -10 c-138 -35 -242 -81 -478 -209 -74 -41 -209 -95 -265 -106 -215 -44
-476 -34 -648 25 -75 26 -111 43 -265 126 -197 107 -348 163 -480 179 -30 3
-73 9 -95 11 -75 10 -172 7 -201 -7 -65 -31 -81 -125 -31 -182 26 -30 45 -35
157 -42 211 -11 324 -48 598 -198 247 -134 424 -177 712 -172 294 5 397 36
760 228 214 113 326 141 555 142 183 0 261 -11 390 -57 55 -19 114 -49 350
-173 123 -65 277 -114 410 -132 77 -10 332 -10 410 0 111 14 130 18 233 52
131 44 276 118 302 155 47 66 9 161 -73 180 -34 7 -48 3 -128 -36 -49 -25
-108 -51 -130 -59 -45 -16 -40 -22 -64 75 -31 122 -129 437 -155 495 -5 11
-22 54 -38 95 -16 41 -44 105 -61 143 -17 37 -31 69 -31 71 0 1 12 3 28 3 99
0 270 32 376 70 65 23 237 104 261 123 49 39 292 142 365 155 14 3 48 9 75 14
70 14 326 11 410 -4 92 -16 211 -57 310 -107 44 -22 85 -43 90 -48 12 -9 177
-92 225 -113 129 -56 320 -92 486 -91 76 1 102 14 130 66 18 35 18 62 -2 103
-22 47 -62 62 -189 69 -181 10 -316 51 -495 150 -298 166 -467 216 -738 220
-160 3 -276 -9 -393 -39 -69 -18 -191 -63 -203 -76 -6 -5 -18 -9 -27 -9 -10 0
-19 -3 -21 -7 -7 -16 -310 -167 -387 -192 -86 -30 -236 -51 -353 -51 l-97 0
-47 63 c-132 173 -342 396 -543 577 -46 41 -89 80 -95 85 -120 108 -420 339
-606 467 -102 69 -130 77 -187 53z m281 -412 c94 -72 236 -184 262 -208 7 -5
31 -26 55 -45 132 -107 373 -340 501 -484 171 -192 301 -392 383 -586 63 -150
181 -504 200 -601 2 -9 8 -33 13 -53 l10 -36 -46 -1 c-82 -2 -245 2 -251 5 -3
2 -30 7 -59 11 -103 13 -251 74 -472 195 -200 109 -418 164 -642 162 l-68 0 0
859 c0 472 3 859 6 859 4 0 52 -35 108 -77z"/>
<path d="M5494 3394 c-69 -24 -100 -93 -70 -156 25 -51 58 -65 171 -73 237
-14 293 -33 615 -202 132 -70 278 -128 348 -139 19 -3 44 -8 56 -10 68 -13
122 -18 213 -18 l103 -1 32 33 c29 28 33 39 32 82 -1 81 -38 110 -148 116
-215 11 -339 44 -511 136 -330 177 -442 216 -665 233 -47 4 -97 8 -111 10 -15
1 -44 -4 -65 -11z"/>
<path d="M95 2142 c-49 -10 -95 -65 -95 -112 0 -36 31 -90 60 -105 15 -8 70
-16 126 -19 171 -8 304 -43 448 -118 309 -160 405 -202 506 -222 14 -3 36 -7
50 -10 94 -21 368 -28 475 -13 194 27 307 67 530 187 251 136 368 170 600 175
278 6 400 -31 770 -235 81 -45 231 -96 330 -114 119 -22 346 -28 476 -14 142
16 339 81 464 152 195 111 325 167 445 191 150 30 395 26 549 -9 62 -14 179
-66 321 -142 181 -97 249 -126 374 -159 91 -24 245 -45 330 -45 95 0 155 59
141 140 -12 69 -61 98 -171 99 -173 2 -361 56 -529 154 -231 135 -419 199
-630 214 -204 15 -337 4 -510 -42 -111 -29 -179 -58 -368 -158 -259 -138 -370
-169 -609 -169 -234 0 -377 39 -613 168 -241 132 -375 178 -575 200 -183 20
-441 -3 -589 -52 -82 -27 -215 -90 -376 -177 -198 -107 -330 -139 -574 -138
-237 0 -337 32 -681 213 -187 98 -326 141 -502 153 -141 11 -152 11 -173 7z"/>
</g>
</svg>
