<?xml version="1.0" standalone="no"?>
<!DOCTYPE svg PUBLIC "-//W3C//DTD SVG 20010904//EN"
 "http://www.w3.org/TR/2001/REC-SVG-20010904/DTD/svg10.dtd">
<svg version="1.0" xmlns="http://www.w3.org/2000/svg"
 width="300.000000pt" height="300.000000pt" viewBox="0 0 300.000000 300.000000"
 preserveAspectRatio="xMidYMid meet">

<g transform="translate(0.000000,300.000000) scale(0.100000,-0.100000)"
fill="#000000" stroke="none">
<path d="M0 1500 l0 -1500 425 0 425 0 0 42 c0 23 9 61 21 85 20 40 23 43 62
43 23 0 65 3 93 6 l51 6 -5 72 c-2 39 -9 77 -15 84 -8 10 -8 15 0 20 6 4 12
45 15 91 2 55 8 86 16 89 6 2 12 10 12 18 0 18 38 27 96 22 l46 -3 -4 223 c-3
197 -6 226 -21 237 -21 15 -22 25 -2 25 13 0 15 23 15 145 0 92 4 145 10 145
6 0 15 11 20 24 5 14 19 26 32 28 21 3 24 13 41 108 9 58 34 197 54 310 20
113 37 234 39 270 1 36 8 78 15 94 11 24 11 29 -4 37 -14 8 -16 23 -13 88 2
44 6 84 10 89 3 5 -1 15 -9 22 -20 17 -19 30 3 30 24 0 42 -19 35 -36 -3 -8 0
-14 7 -14 7 0 10 -12 9 -32 -2 -18 0 -58 4 -90 6 -40 5 -62 -5 -77 -10 -16
-10 -23 0 -33 16 -16 15 -28 -3 -28 -12 0 -13 -4 -5 -17 6 -10 37 -155 70
-323 78 -395 76 -388 109 -392 17 -2 27 -10 29 -23 2 -11 10 -25 18 -31 10 -8
14 -44 15 -152 0 -121 3 -143 17 -153 12 -7 14 -12 5 -15 -10 -4 -13 -61 -13
-235 l0 -229 64 0 c58 0 65 -2 82 -27 13 -20 20 -52 22 -108 2 -44 9 -86 15
-93 7 -9 7 -16 -1 -24 -12 -12 -16 -107 -6 -143 4 -18 12 -20 83 -17 77 3 79
3 100 -26 11 -17 21 -35 21 -41 0 -6 5 -11 10 -11 6 0 8 -15 4 -40 l-7 -40
447 0 446 0 0 385 c0 335 -2 385 -15 386 -59 5 -85 2 -117 -13 -20 -10 -43
-15 -51 -13 -7 3 -35 -3 -62 -15 -26 -11 -50 -18 -53 -15 -12 12 19 27 90 44
41 10 83 23 94 29 11 6 40 12 65 15 l44 4 3 1096 2 1097 -1500 0 -1500 0 0
-1500z m120 694 c0 -8 -5 -12 -10 -9 -6 4 -8 11 -5 16 9 14 15 11 15 -7z m190
-28 c0 -2 -7 -6 -15 -10 -8 -3 -15 -1 -15 4 0 6 7 10 15 10 8 0 15 -2 15 -4z
m-92 -28 c-3 -7 -13 -15 -24 -17 -16 -3 -17 -1 -5 13 16 19 34 21 29 4z m-168
-278 c0 -5 -4 -10 -9 -10 -6 0 -13 5 -16 10 -3 6 1 10 9 10 9 0 16 -4 16 -10z
m155 -98 c-3 -8 0 -21 6 -29 7 -7 9 -16 6 -20 -4 -3 -14 10 -22 30 -8 21 -20
37 -25 37 -6 0 -10 4 -10 10 0 6 10 5 25 -2 16 -7 24 -17 20 -26z m309 -67
c-4 -8 -8 -15 -10 -15 -2 0 -4 7 -4 15 0 8 4 15 10 15 5 0 7 -7 4 -15z m46
-39 c0 -6 -7 -2 -15 8 -8 11 -15 25 -15 30 0 6 7 2 15 -8 8 -11 15 -25 15 -30z
m-490 -20 c0 -2 -7 -7 -16 -10 -8 -3 -12 -2 -9 4 6 10 25 14 25 6z m95 -16 c3
-5 -1 -10 -10 -10 -9 0 -13 5 -10 10 3 6 8 10 10 10 2 0 7 -4 10 -10z m-85
-10 c0 -5 -4 -10 -10 -10 -5 0 -10 5 -10 10 0 6 5 10 10 10 6 0 10 -4 10 -10z
m-48 -15 c0 -5 -5 -11 -11 -13 -6 -2 -11 4 -11 13 0 9 5 15 11 13 6 -2 11 -8
11 -13z m128 -35 c0 -5 -4 -10 -10 -10 -5 0 -10 5 -10 10 0 6 5 10 10 10 6 0
10 -4 10 -10z m12 -82 c-7 -7 -12 -8 -12 -2 0 14 12 26 19 19 2 -3 -1 -11 -7
-17z m83 -18 c3 -5 -1 -10 -10 -10 -9 0 -13 5 -10 10 3 6 8 10 10 10 2 0 7 -4
10 -10z m2583 -223 c3 -16 1 -17 -17 -5 -25 16 -27 31 -4 26 10 -2 19 -11 21
-21z m-173 -87 c3 -6 -1 -7 -9 -4 -18 7 -21 14 -7 14 6 0 13 -4 16 -10z m-15
-134 c0 -3 -4 -8 -10 -11 -5 -3 -10 -1 -10 4 0 6 5 11 10 11 6 0 10 -2 10 -4z
m-43 -58 c-3 -8 -6 -5 -6 6 -1 11 2 17 5 13 3 -3 4 -12 1 -19z m38 2 c3 -5 1
-10 -4 -10 -6 0 -11 5 -11 10 0 6 2 10 4 10 3 0 8 -4 11 -10z m-95 -15 c-7 -8
-16 -15 -20 -15 -4 0 -10 7 -14 15 -4 11 2 15 21 15 21 0 24 -2 13 -15z m-130
-15 c0 -5 -4 -10 -10 -10 -5 0 -10 5 -10 10 0 6 5 10 10 10 6 0 10 -4 10 -10z
m-40 -20 c0 -5 -9 -10 -20 -10 -11 0 -20 5 -20 10 0 6 9 10 20 10 11 0 20 -4
20 -10z m-84 -45 c4 -8 16 -15 28 -16 21 0 20 0 -2 -9 -27 -11 -63 6 -55 27 7
17 22 17 29 -2z m-161 -45 c3 -5 -3 -10 -15 -10 -12 0 -18 5 -15 10 3 6 10 10
15 10 5 0 12 -4 15 -10z m400 -130 c3 -5 -1 -10 -9 -10 -8 0 -18 5 -21 10 -3
6 1 10 9 10 8 0 18 -4 21 -10z m-240 -60 c3 -5 -1 -10 -9 -10 -9 0 -16 5 -16
10 0 6 4 10 9 10 6 0 13 -4 16 -10z"/>
<path d="M1385 1100 c-3 -5 -3 -96 0 -202 3 -106 5 -324 5 -485 l-1 -292 33 2
c28 2 34 6 38 32 10 53 -1 235 -14 228 -6 -3 -6 0 2 8 16 17 16 109 0 109 -9
0 -9 3 0 12 9 9 10 83 6 292 -3 155 -7 287 -9 294 -5 14 -51 16 -60 2z m45
-350 c0 -5 -2 -10 -4 -10 -3 0 -8 5 -11 10 -3 6 -1 10 4 10 6 0 11 -4 11 -10z
m-3 -72 c-3 -7 -5 -2 -5 12 0 14 2 19 5 13 2 -7 2 -19 0 -25z m8 -37 c3 -5 1
-12 -5 -16 -5 -3 -10 1 -10 9 0 18 6 21 15 7z"/>
<path d="M1260 320 c-13 -8 -12 -10 3 -10 9 0 17 5 17 10 0 12 -1 12 -20 0z"/>
<path d="M1247 123 c-4 -3 -7 -33 -7 -65 l0 -58 73 1 72 1 -52 10 c-29 5 -53
14 -53 19 0 6 5 7 10 4 6 -3 10 -1 10 4 0 6 -5 11 -12 11 -6 0 -9 3 -5 6 3 3
2 17 -3 30 -7 18 -5 26 8 33 14 9 13 10 -9 11 -14 0 -29 -3 -32 -7z"/>
<path d="M1540 36 c0 -10 -19 -16 -67 -21 -98 -9 -99 -13 -5 -14 81 -1 82 -1
82 24 0 14 -2 25 -5 25 -3 0 -5 -6 -5 -14z"/>
<path d="M1140 16 c0 -9 5 -16 10 -16 6 0 10 4 10 9 0 6 -4 13 -10 16 -5 3
-10 -1 -10 -9z"/>
</g>
</svg>
